<svg width="60" height="56" viewBox="0 0 60 56" fill="none" xmlns="http://www.w3.org/2000/svg">
<path d="M57.5005 51H56.5215L56.5055 37.984C56.5058 37.3941 56.3895 36.8099 56.1633 36.265C55.9371 35.7202 55.6055 35.2254 55.1875 34.809L46.8235 26.445C46.7292 26.354 46.6029 26.3036 46.4718 26.3047C46.3407 26.3058 46.2153 26.3584 46.1226 26.4511C46.0299 26.5438 45.9773 26.6692 45.9761 26.8003C45.975 26.9314 46.0254 27.0577 46.1165 27.152L54.4805 35.516C54.8056 35.84 55.0635 36.2249 55.2394 36.6488C55.4153 37.0727 55.5057 37.5271 55.5055 37.986L55.5215 51H54.5005C54.3679 51 54.2407 51.0527 54.1469 51.1465C54.0532 51.2403 54.0005 51.3674 54.0005 51.5V54.5C54.0005 54.6327 54.0532 54.7598 54.1469 54.8536C54.2407 54.9474 54.3679 55 54.5005 55H57.5005C57.6331 55 57.7603 54.9474 57.854 54.8536C57.9478 54.7598 58.0005 54.6327 58.0005 54.5V51.5C58.0005 51.3674 57.9478 51.2403 57.854 51.1465C57.7603 51.0527 57.6331 51 57.5005 51ZM57.0005 54H55.0005V52H57.0005V54ZM12.5215 42.031H3.52148C3.38888 42.031 3.2617 42.0837 3.16793 42.1775C3.07416 42.2713 3.02148 42.3984 3.02148 42.531V45.031H1.52148C0.694484 45.031 0.0214844 45.704 0.0214844 46.531V50.531C0.0214844 51.358 0.694484 52.031 1.52148 52.031H3.02148V53.531C3.02148 54.358 3.69448 55.031 4.52148 55.031H11.5215C12.3485 55.031 13.0215 54.358 13.0215 53.531V42.531C13.0215 42.3984 12.9688 42.2713 12.875 42.1775C12.7813 42.0837 12.6541 42.031 12.5215 42.031ZM3.02148 51.031H1.52148C1.38888 51.031 1.2617 50.9784 1.16793 50.8846C1.07416 50.7908 1.02148 50.6637 1.02148 50.531V46.531C1.02148 46.3984 1.07416 46.2713 1.16793 46.1775C1.2617 46.0837 1.38888 46.031 1.52148 46.031H3.02148V51.031ZM12.0215 53.531C12.0215 53.6637 11.9688 53.7908 11.875 53.8846C11.7813 53.9784 11.6541 54.031 11.5215 54.031H4.52148C4.38888 54.031 4.2617 53.9784 4.16793 53.8846C4.07416 53.7908 4.02148 53.6637 4.02148 53.531V43.031H12.0215V53.531ZM4.46448 38.016H6.38648C6.41248 38.02 6.43648 38.032 6.46448 38.032H8.46448C8.59709 38.032 8.72427 38.0847 8.81804 38.1785C8.91181 38.2723 8.96448 38.3994 8.96448 38.532C8.96448 38.6647 8.91181 38.7918 8.81804 38.8856C8.72427 38.9794 8.59709 39.032 8.46448 39.032H5.46448C4.63748 39.032 3.96448 39.705 3.96448 40.532C3.96448 40.6647 4.01716 40.7918 4.11093 40.8856C4.2047 40.9794 4.33188 41.032 4.46448 41.032C4.59709 41.032 4.72427 40.9794 4.81804 40.8856C4.91181 40.7918 4.96448 40.6647 4.96448 40.532C4.96448 40.3994 5.01716 40.2723 5.11093 40.1785C5.2047 40.0847 5.33188 40.032 5.46448 40.032H10.4645C11.2915 40.032 11.9645 39.359 11.9645 38.532C11.9645 37.705 11.2915 37.032 10.4645 37.032H8.54248C8.51648 37.028 8.49248 37.016 8.46448 37.016H6.46448C6.33188 37.016 6.2047 36.9634 6.11093 36.8696C6.01716 36.7758 5.96448 36.6487 5.96448 36.516C5.96448 36.3834 5.91181 36.2563 5.81804 36.1625C5.72427 36.0687 5.59709 36.016 5.46448 36.016C5.33188 36.016 5.2047 36.0687 5.11093 36.1625C5.01716 36.2563 4.96448 36.3834 4.96448 36.516C4.96448 36.692 5.00048 36.859 5.05648 37.016H4.46448C4.33188 37.016 4.2047 36.9634 4.11093 36.8696C4.01716 36.7758 3.96448 36.6487 3.96448 36.516C3.96448 36.3834 3.91181 36.2563 3.81804 36.1625C3.72427 36.0687 3.59709 36.016 3.46448 36.016C3.33188 36.016 3.2047 36.0687 3.11093 36.1625C3.01716 36.2563 2.96448 36.3834 2.96448 36.516C2.96448 37.343 3.63748 38.016 4.46448 38.016ZM9.87248 38.031H10.4645C10.5971 38.031 10.7243 38.0837 10.818 38.1775C10.9118 38.2713 10.9645 38.3984 10.9645 38.531C10.9645 38.6637 10.9118 38.7908 10.818 38.8846C10.7243 38.9784 10.5971 39.031 10.4645 39.031H9.87248C9.92848 38.874 9.96448 38.707 9.96448 38.531C9.96448 38.355 9.92848 38.188 9.87248 38.031Z" fill="#FE9526"/>
<path d="M35.0446 33.6382C35.0192 33.5138 34.9476 33.4036 34.8443 33.3299C34.7409 33.2561 34.6134 33.2243 34.4875 33.2408C34.3616 33.2573 34.2467 33.3208 34.1658 33.4187C34.0849 33.5166 34.0441 33.6415 34.0516 33.7682L34.2816 35.5272L32.4416 37.3672L32.9116 33.7682C32.9288 33.6366 32.8931 33.5034 32.8121 33.3981C32.7312 33.2928 32.6118 33.224 32.4801 33.2067C32.3484 33.1895 32.2153 33.2253 32.11 33.3062C32.0047 33.3871 31.9358 33.5066 31.9186 33.6382L29.9846 48.4442C29.9679 48.5738 30.0023 48.7047 30.0806 48.8092L33.0806 52.8092C33.1273 52.8712 33.1877 52.9214 33.2571 52.956C33.3265 52.9906 33.403 53.0086 33.4806 53.0086C33.5581 53.0086 33.6346 52.9906 33.704 52.956C33.7735 52.9214 33.8339 52.8712 33.8806 52.8092L36.8806 48.8092C36.9586 48.7045 36.993 48.5737 36.9766 48.4442L35.0446 33.6382ZM32.2306 38.9932L34.4456 36.7782L34.6796 38.5682L31.9266 41.3212L32.2306 38.9932ZM31.7176 42.9232C31.7376 42.9082 31.7616 42.9002 31.7796 42.8822L34.8436 39.8182L35.0506 41.4052L31.4446 45.0102L31.7176 42.9232ZM31.0056 48.3722L31.2336 46.6262C31.2426 46.6182 31.2546 46.6152 31.2636 46.6062L35.2136 42.6562L35.4246 44.2692C35.3816 44.2922 35.3386 44.3142 35.3026 44.3502L31.1236 48.5302L31.0056 48.3722ZM31.7296 49.3372L35.5836 45.4832L35.7466 46.7312L32.4016 50.2332L31.7296 49.3372ZM33.4826 51.6762L33.0086 51.0432L35.9126 48.0032L35.9606 48.3722L33.4826 51.6762ZM33.5306 17.9692C34.3576 17.9692 35.0306 17.2962 35.0306 16.4692C35.0306 16.3366 34.9779 16.2095 34.8841 16.1157C34.7904 16.0219 34.6632 15.9692 34.5306 15.9692C34.398 15.9692 34.2708 16.0219 34.177 16.1157C34.0833 16.2095 34.0306 16.3366 34.0306 16.4692C34.0306 16.6018 33.9779 16.729 33.8841 16.8228C33.7904 16.9166 33.6632 16.9692 33.5306 16.9692C33.398 16.9692 33.2708 16.9166 33.177 16.8228C33.0833 16.729 33.0306 16.6018 33.0306 16.4692C33.0306 16.3366 32.9779 16.2095 32.8841 16.1157C32.7904 16.0219 32.6632 15.9692 32.5306 15.9692C32.398 15.9692 32.2708 16.0219 32.177 16.1157C32.0833 16.2095 32.0306 16.3366 32.0306 16.4692C32.0306 17.2962 32.7036 17.9692 33.5306 17.9692ZM33.0226 22.9692H34.0226C34.1552 22.9692 34.2824 22.9166 34.3761 22.8228C34.4699 22.729 34.5226 22.6018 34.5226 22.4692C34.5226 22.3366 34.4699 22.2095 34.3761 22.1157C34.2824 22.0219 34.1552 21.9692 34.0226 21.9692H33.0226C32.89 21.9692 32.7628 22.0219 32.669 22.1157C32.5753 22.2095 32.5226 22.3366 32.5226 22.4692C32.5226 22.6018 32.5753 22.729 32.669 22.8228C32.7628 22.9166 32.89 22.9692 33.0226 22.9692ZM36.8506 19.8542C36.9011 19.8123 36.9429 19.7608 36.9736 19.7027C37.0043 19.6446 37.0232 19.581 37.0292 19.5156C37.0353 19.4501 37.0285 19.3842 37.009 19.3214C36.9896 19.2586 36.958 19.2003 36.9161 19.1497C36.8741 19.0992 36.8226 19.0574 36.7645 19.0267C36.7064 18.9961 36.6428 18.9772 36.5774 18.9711C36.512 18.965 36.446 18.9719 36.3832 18.9913C36.3205 19.0107 36.2621 19.0423 36.2116 19.0842C34.8426 20.2212 32.2136 20.2192 30.8516 19.0842C30.7494 18.9999 30.6179 18.9592 30.4859 18.9712C30.3539 18.9832 30.232 19.0468 30.1466 19.1482C30.0623 19.2503 30.0217 19.3816 30.0337 19.5134C30.0457 19.6453 30.1092 19.767 30.2106 19.8522C31.0826 20.5782 32.2616 20.9772 33.5306 20.9772C34.7986 20.9782 35.9786 20.5792 36.8506 19.8542Z" fill="#595BD4"/>
<path d="M30.0303 13.4668C30.3064 13.4668 30.5303 13.2429 30.5303 12.9668C30.5303 12.6907 30.3064 12.4668 30.0303 12.4668C29.7541 12.4668 29.5303 12.6907 29.5303 12.9668C29.5303 13.2429 29.7541 13.4668 30.0303 13.4668Z" fill="#595BD4"/>
<path d="M37.0303 13.4668C37.3064 13.4668 37.5303 13.2429 37.5303 12.9668C37.5303 12.6907 37.3064 12.4668 37.0303 12.4668C36.7541 12.4668 36.5303 12.6907 36.5303 12.9668C36.5303 13.2429 36.7541 13.4668 37.0303 13.4668Z" fill="#595BD4"/>
<path d="M41.4394 30.0308H39.6594L37.3824 27.7538C37.3236 27.699 37.2525 27.6591 37.175 27.6375C37.0976 27.616 37.0161 27.6133 36.9374 27.6298V25.5648C39.8944 24.5588 42.0314 21.7608 42.0314 18.4678V16.9678H42.5104C43.3374 16.9678 44.0104 16.2948 44.0104 15.4678V12.4678C44.0104 11.6408 43.3374 10.9678 42.5104 10.9678H42.0314V9.87577C42.6124 9.66877 43.0314 9.11877 43.0314 8.46777V5.46777C43.0314 4.08977 41.9104 2.96777 40.5314 2.96777H29.5314C28.7044 2.96777 28.0314 2.29477 28.0314 1.46777C28.0314 1.33517 27.9788 1.20799 27.885 1.11422C27.7912 1.02045 27.664 0.967773 27.5314 0.967773C25.6014 0.967773 24.0314 2.53777 24.0314 4.46777V8.46777C24.0314 9.11877 24.4504 9.66877 25.0314 9.87577V10.9678H24.5314C23.7044 10.9678 23.0314 11.6408 23.0314 12.4678V15.4678C23.0314 16.2948 23.7044 16.9678 24.5314 16.9678H25.0314V18.4678C25.0314 21.6908 27.0784 24.4368 29.9374 25.4958V27.6998C29.8285 27.7108 29.7264 27.758 29.6474 27.8338L27.4314 30.0498C27.3994 30.0438 27.3704 30.0308 27.3364 30.0308H25.4404C19.6504 30.0308 14.9404 34.7408 14.9404 40.5308V54.5308C14.9404 54.6634 14.9931 54.7906 15.0869 54.8843C15.1806 54.9781 15.3078 55.0308 15.4404 55.0308H51.4404C51.573 55.0308 51.7002 54.9781 51.794 54.8843C51.8878 54.7906 51.9404 54.6634 51.9404 54.5308V40.5308C51.9394 34.7418 47.2294 30.0308 41.4394 30.0308ZM25.0314 15.9688H24.5314C24.3988 15.9688 24.2716 15.9161 24.1779 15.8223C24.0841 15.7286 24.0314 15.6014 24.0314 15.4688V12.4688C24.0314 12.3362 24.0841 12.209 24.1779 12.1152C24.2716 12.0215 24.3988 11.9688 24.5314 11.9688H25.0314V15.9688ZM37.0294 28.8148L38.6934 30.4788L35.8444 33.3268L35.3684 32.8508C35.3564 32.8358 35.3504 32.8168 35.3364 32.8028L34.1894 31.6558L36.7894 29.0558L36.7934 29.0518L37.0294 28.8148ZM34.2684 33.1638L33.4834 33.9488L32.6904 33.1558L33.4754 32.3708L34.2684 33.1638ZM30.9304 28.4098C30.9314 28.3968 30.9374 28.3868 30.9374 28.3738V25.7938C31.461 25.9087 31.9954 25.9671 32.5314 25.9678H34.5314C35.0124 25.9678 35.4814 25.9178 35.9374 25.8308V28.4918L33.4754 30.9538L30.9304 28.4098ZM41.0314 10.9688H38.3434C38.3064 10.9688 38.2734 10.9818 38.2394 10.9898C38.1704 10.9828 38.1024 10.9688 38.0314 10.9688H36.0314C35.2274 10.9688 34.5364 11.4488 34.2194 12.1358C34.0098 12.022 33.7759 11.9599 33.5374 11.9548C33.2894 11.9548 33.0614 12.0338 32.8494 12.1458C32.6914 11.796 32.4361 11.4991 32.1139 11.2906C31.7917 11.0821 31.4162 10.9707 31.0324 10.9698H29.0324L29.0184 10.9708L29.0114 10.9698H26.0324V9.96977H41.0324V10.9688H41.0314ZM39.0314 12.9688C39.0314 13.5198 38.5834 13.9688 38.0314 13.9688H36.0314C35.7739 13.9573 35.5308 13.8469 35.3527 13.6606C35.1746 13.4743 35.0752 13.2265 35.0752 12.9688C35.0752 12.711 35.1746 12.4632 35.3527 12.277C35.5308 12.0907 35.7739 11.9803 36.0314 11.9688H38.0314C38.2966 11.9688 38.551 12.0741 38.7385 12.2617C38.9261 12.4492 39.0314 12.7036 39.0314 12.9688ZM32.0314 12.9688C32.0314 13.5198 31.5834 13.9688 31.0314 13.9688H29.0314C28.7739 13.9573 28.5308 13.8469 28.3527 13.6606C28.1746 13.4743 28.0752 13.2265 28.0752 12.9688C28.0752 12.711 28.1746 12.4632 28.3527 12.277C28.5308 12.0907 28.7739 11.9803 29.0314 11.9688H31.0314C31.2966 11.9688 31.551 12.0741 31.7385 12.2617C31.9261 12.4492 32.0314 12.7036 32.0314 12.9688ZM42.5104 11.9688C42.643 11.9688 42.7702 12.0215 42.864 12.1152C42.9578 12.209 43.0104 12.3362 43.0104 12.4688V15.4688C43.0104 15.6014 42.9578 15.7286 42.864 15.8223C42.7702 15.9161 42.643 15.9688 42.5104 15.9688H42.0314V11.9688H42.5104ZM25.0314 8.46877V4.46877C25.0314 3.24077 25.9214 2.21677 27.0904 2.00777C27.2139 2.5634 27.5229 3.0604 27.9666 3.41687C28.4103 3.77334 28.9623 3.968 29.5314 3.96877H40.5314C41.3584 3.96877 42.0314 4.64177 42.0314 5.46877V8.46877C42.0314 8.60138 41.9788 8.72856 41.885 8.82233C41.7912 8.9161 41.664 8.96877 41.5314 8.96877H25.5314C25.3988 8.96877 25.2716 8.9161 25.1779 8.82233C25.0841 8.72856 25.0314 8.60138 25.0314 8.46877ZM26.0314 18.4688V11.9688H27.3094C27.1294 12.2714 27.0334 12.6166 27.0314 12.9688C27.0314 14.0718 27.9284 14.9688 29.0314 14.9688H31.0314C31.9534 14.9688 32.7254 14.3378 32.9554 13.4868C32.9674 13.4608 32.9854 13.4398 32.9924 13.4118C33.1314 12.9008 33.8304 12.7558 34.0834 13.4168C34.0844 13.4198 34.0884 13.4218 34.0884 13.4248C34.1913 13.8632 34.4391 14.2542 34.7917 14.5344C35.1442 14.8146 35.5811 14.9676 36.0314 14.9688H38.0314C39.1344 14.9688 40.0314 14.0718 40.0314 12.9688C40.0314 12.6028 39.9254 12.2638 39.7534 11.9688H41.0314V18.4688C41.0314 22.0528 38.1154 24.9688 34.5314 24.9688H32.5314C30.8082 24.9667 29.1561 24.2812 27.9376 23.0626C26.719 21.8441 26.0335 20.192 26.0314 18.4688ZM30.0014 28.8948L32.7704 31.6628L31.1064 33.3268L28.3374 30.5588L30.0014 28.8948ZM50.9394 54.0308H43.9304C43.9314 54.0148 43.9394 54.0018 43.9394 53.9858V39.5308C43.9394 39.3982 43.8868 39.271 43.793 39.1772C43.6992 39.0835 43.572 39.0308 43.4394 39.0308C43.3068 39.0308 43.1796 39.0835 43.0859 39.1772C42.9921 39.271 42.9394 39.3982 42.9394 39.5308V53.9858C42.9394 54.0018 42.9474 54.0148 42.9484 54.0308H22.9304C22.9314 54.0148 22.9394 54.0018 22.9394 53.9858V39.5308C22.9394 39.3982 22.8868 39.271 22.793 39.1772C22.6992 39.0835 22.572 39.0308 22.4394 39.0308C22.3068 39.0308 22.1796 39.0835 22.0859 39.1772C21.9921 39.271 21.9394 39.3982 21.9394 39.5308V53.9858C21.9394 54.0018 21.9474 54.0148 21.9484 54.0308H15.9394V40.5308C15.9394 35.2928 20.2014 31.0308 25.4394 31.0308H27.3354C27.3534 31.0308 27.3674 31.0228 27.3854 31.0208L30.7514 34.3868C30.7977 34.4336 30.8529 34.4707 30.9136 34.4961C30.9744 34.5215 31.0396 34.5345 31.1054 34.5345C31.1713 34.5345 31.2365 34.5215 31.2972 34.4961C31.358 34.4707 31.4131 34.4336 31.4594 34.3868L31.9834 33.8628L33.1304 35.0098C33.1767 35.0566 33.2319 35.0937 33.2926 35.1191C33.3534 35.1444 33.4186 35.1575 33.4844 35.1575C33.5503 35.1575 33.6155 35.1444 33.6762 35.1191C33.737 35.0937 33.7921 35.0566 33.8384 35.0098L34.9764 33.8718L35.4924 34.3878C35.5387 34.4346 35.5939 34.4717 35.6546 34.4971C35.7154 34.5224 35.7806 34.5355 35.8464 34.5355C35.9123 34.5355 35.9775 34.5224 36.0382 34.4971C36.099 34.4717 36.1541 34.4346 36.2004 34.3878L39.5574 31.0318H41.4414C46.6794 31.0318 50.9414 35.2938 50.9414 40.5318V54.0308H50.9394Z" fill="#595BD4"/>
<path d="M42.5802 22.9099C42.3937 23.095 42.2458 23.3153 42.1452 23.558C42.0446 23.8008 41.9933 24.0611 41.9942 24.3239C41.9942 24.8579 42.2022 25.3599 42.5802 25.7379L43.9942 27.1519C44.3722 27.5299 44.8742 27.7379 45.4082 27.7379C45.9432 27.7379 46.4452 27.5299 46.8222 27.1519C47.2002 26.7749 47.4082 26.2729 47.4082 25.7379C47.4082 25.2029 47.2002 24.7019 46.8222 24.3239L45.4082 22.9099C45.033 22.5352 44.5244 22.3247 43.9942 22.3247C43.4639 22.3247 42.9553 22.5352 42.5802 22.9099ZM46.1152 25.0309C46.2083 25.1235 46.2823 25.2337 46.3327 25.355C46.3832 25.4763 46.4092 25.6065 46.4092 25.7379C46.4092 25.8693 46.3832 25.9994 46.3327 26.1207C46.2823 26.2421 46.2083 26.3522 46.1152 26.4449C45.9246 26.6264 45.6714 26.7277 45.4082 26.7277C45.1449 26.7277 44.8918 26.6264 44.7012 26.4449L43.2872 25.0309C43.194 24.9382 43.12 24.8281 43.0696 24.7067C43.0191 24.5854 42.9931 24.4553 42.9931 24.3239C42.9931 24.1925 43.0191 24.0623 43.0696 23.941C43.12 23.8197 43.194 23.7095 43.2872 23.6169C43.4747 23.4294 43.729 23.3241 43.9942 23.3241C44.2593 23.3241 44.5136 23.4294 44.7012 23.6169L46.1152 25.0309Z" fill="#595BD4"/>
<path d="M59.479 55.0308H0.583008C0.4504 55.0308 0.323223 54.9781 0.229455 54.8843C0.135686 54.7905 0.0830078 54.6634 0.0830078 54.5308C0.0830078 54.3982 0.135686 54.271 0.229455 54.1772C0.323223 54.0834 0.4504 54.0308 0.583008 54.0308H59.479C59.6116 54.0308 59.7388 54.0834 59.8326 54.1772C59.9263 54.271 59.979 54.3982 59.979 54.5308C59.979 54.6634 59.9263 54.7905 59.8326 54.8843C59.7388 54.9781 59.6116 55.0308 59.479 55.0308Z" fill="#FE9526"/>
</svg>
