<svg width="56" height="60" viewBox="0 0 56 60" fill="none" xmlns="http://www.w3.org/2000/svg">
<path d="M42.9863 9.96872H40.9863V5.46872C40.9796 4.59025 40.7161 3.73292 40.2284 3.00224C39.7407 2.27155 39.0501 1.69938 38.2414 1.35615C37.4327 1.01292 36.5414 0.913597 35.677 1.0704C34.8126 1.22721 34.0129 1.63331 33.3763 2.23872C32.9817 1.55785 32.4151 0.992643 31.7333 0.59973C31.0514 0.206818 30.2783 0 29.4913 0C28.7044 0 27.9312 0.206818 27.2494 0.59973C26.5675 0.992643 26.0009 1.55785 25.6063 2.23872C24.9524 1.61855 24.1278 1.20819 23.2388 1.06043C22.3497 0.912661 21.4367 1.03424 20.6173 1.40954C19.7979 1.78483 19.1095 2.39668 18.6407 3.16639C18.1718 3.93609 17.9439 4.82846 17.9863 5.72873C17.3068 5.28601 16.5209 5.0339 15.7107 4.99873C14.9005 4.96356 14.0957 5.14662 13.3804 5.52879C12.6651 5.91096 12.0656 6.47822 11.6444 7.17128C11.2233 7.86435 10.996 8.6578 10.9863 9.46873V14.9687C10.1914 14.971 9.42967 15.2879 8.86757 15.85C8.30546 16.4121 7.98864 17.1738 7.98633 17.9687V19.8787C7.99146 22.1024 8.73348 24.2616 10.0963 26.0187L13.3063 30.1487C14.3926 31.5553 14.9833 33.2816 14.9863 35.0587V42.5287C14.3805 42.8762 13.8767 43.3771 13.5256 43.9809C13.1746 44.5847 12.9886 45.2703 12.9863 45.9687V55.9687C12.9862 56.4941 13.0895 57.0143 13.2905 57.4996C13.4915 57.985 13.7861 58.426 14.1576 58.7975C14.529 59.1689 14.9701 59.4636 15.4554 59.6645C15.9408 59.8655 16.461 59.9689 16.9863 59.9687H38.9863C39.5117 59.9689 40.0319 59.8655 40.5172 59.6645C41.0026 59.4636 41.4436 59.1689 41.8151 58.7975C42.1865 58.426 42.4812 57.985 42.6821 57.4996C42.8831 57.0143 42.9865 56.4941 42.9863 55.9687V45.9687C42.9841 45.2703 42.7981 44.5847 42.447 43.9809C42.096 43.3771 41.5922 42.8762 40.9863 42.5287V35.0587C40.9894 33.2816 41.58 31.5553 42.6663 30.1487L45.8763 26.0187C47.2392 24.2616 47.9812 22.1024 47.9863 19.8787V14.9687C47.9859 13.6428 47.4589 12.3713 46.5213 11.4337C45.5838 10.4961 44.3123 9.9692 42.9863 9.96872ZM33.9863 5.46872C33.9925 4.97676 34.143 4.49744 34.4193 4.09031C34.6955 3.68318 35.0853 3.36618 35.5401 3.17869C35.995 2.9912 36.495 2.94148 36.9779 3.03571C37.4607 3.12994 37.9053 3.36397 38.2563 3.70872C38.4887 3.93897 38.6729 4.21317 38.7982 4.51534C38.9236 4.8175 38.9875 5.14159 38.9863 5.46872V9.96872H33.9863V5.46872ZM26.9863 4.46872C26.994 3.81073 27.2608 3.18229 27.7288 2.71971C28.1968 2.25713 28.8283 1.9977 29.4863 1.9977C30.1444 1.9977 30.7759 2.25713 31.2439 2.71971C31.7119 3.18229 31.9787 3.81073 31.9863 4.46872V9.96872C31.2163 10.0287 27.6463 9.80872 26.9863 10.1487V4.46872ZM26.9863 17.8487C28.1786 19.0746 29.7805 19.8186 31.4863 19.9387C31.1367 20.4019 30.6388 20.7312 30.0758 20.8717C29.5127 21.0123 28.9185 20.9556 28.3922 20.7112C27.8659 20.4667 27.4393 20.0493 27.1834 19.5284C26.9276 19.0075 26.858 18.4147 26.9863 17.8487ZM19.9863 5.46872C19.994 4.81073 20.2608 4.18229 20.7288 3.71971C21.1968 3.25713 21.8283 2.9977 22.4863 2.9977C23.1444 2.9977 23.7759 3.25713 24.2439 3.71971C24.7119 4.18229 24.9787 4.81073 24.9863 5.46872V18.4687C24.9791 19.127 24.7125 19.7559 24.2444 20.2188C23.7764 20.6818 23.1446 20.9414 22.4863 20.9414C21.8279 20.9414 21.1962 20.6817 20.7281 20.2188C20.2601 19.7558 19.9935 19.1269 19.9863 18.4686V5.46872ZM12.9863 9.46872C12.994 8.81073 13.2608 8.18229 13.7288 7.71971C14.1968 7.25713 14.8283 6.9977 15.4863 6.9977C16.1444 6.9977 16.7759 7.25713 17.2439 7.71971C17.7119 8.18229 17.9787 8.81073 17.9863 9.46872V17.4687C17.9791 18.127 17.7125 18.7559 17.2444 19.2188C16.7764 19.6818 16.1446 19.9414 15.4863 19.9414C14.8279 19.9414 14.1962 19.6817 13.7281 19.2188C13.2601 18.7558 12.9935 18.1269 12.9863 17.4686V9.46872ZM34.9863 52.9687C34.4594 52.9635 33.9558 52.7504 33.585 52.3759C33.2142 52.0014 33.0062 51.4957 33.0062 50.9687C33.0062 50.4417 33.2142 49.936 33.585 49.5615C33.9558 49.187 34.4594 48.974 34.9863 48.9687C35.5133 48.974 36.0169 49.187 36.3877 49.5615C36.7584 49.936 36.9664 50.4417 36.9664 50.9687C36.9664 51.4957 36.7584 52.0014 36.3877 52.3759C36.0169 52.7504 35.5133 52.9635 34.9863 52.9687ZM45.9863 19.8787C45.9833 21.6559 45.3926 23.3822 44.3063 24.7887L41.0963 28.9187C39.7335 30.6758 38.9915 32.835 38.9863 35.0587V41.9687H16.9863V35.0587C16.9812 32.835 16.2392 30.6758 14.8763 28.9187L11.6663 24.7887C10.5801 23.3822 9.98939 21.6559 9.98633 19.8787V17.9687C9.98712 17.7038 10.0927 17.4499 10.2801 17.2625C10.4675 17.0751 10.7214 16.9695 10.9863 16.9687C10.8953 17.8875 11.0874 18.8121 11.5368 19.6185C11.9862 20.425 12.6715 21.0747 13.5007 21.4806C14.3299 21.8865 15.2634 22.0292 16.176 21.8894C17.0886 21.7497 17.9366 21.3342 18.6063 20.6987C18.9713 21.3299 19.4846 21.8625 20.1019 22.2504C20.7191 22.6384 21.4217 22.87 22.1486 22.9252C22.8756 22.9803 23.605 22.8574 24.2738 22.567C24.9425 22.2766 25.5303 21.8276 25.9863 21.2587C26.4859 21.8813 27.1423 22.3596 27.888 22.6442C28.6338 22.9289 29.4419 23.0097 30.2292 22.8783C31.0166 22.7469 31.7547 22.408 32.3676 21.8967C32.9805 21.3853 33.446 20.7198 33.7163 19.9687H33.8163C33.8468 21.0408 34.2943 22.0586 35.0638 22.8056C35.8333 23.5527 36.8639 23.97 37.9363 23.9687C38.201 23.9798 38.4594 23.8864 38.6558 23.7087C38.8522 23.531 38.9709 23.2832 38.9863 23.0187C38.9934 22.8873 38.9744 22.7557 38.9304 22.6317C38.8864 22.5076 38.8183 22.3935 38.73 22.2959C38.6417 22.1983 38.5349 22.1191 38.4159 22.063C38.2968 22.0068 38.1678 21.9748 38.0363 21.9687C37.5916 21.9726 37.1553 21.847 36.7807 21.6073C36.406 21.3676 36.1092 21.0241 35.9263 20.6187C35.7805 20.1868 35.784 19.7184 35.9363 19.2887C35.985 19.1381 35.9975 18.9782 35.9729 18.8218C35.9484 18.6655 35.8874 18.5171 35.795 18.3886C35.7025 18.2601 35.5812 18.1552 35.4407 18.0823C35.3002 18.0093 35.1446 17.9704 34.9863 17.9687H31.9863C30.6666 17.9648 29.4016 17.4409 28.4657 16.5105C27.5297 15.5802 26.9982 14.3184 26.9863 12.9987C26.9825 12.7296 27.0857 12.4699 27.2732 12.2768C27.4607 12.0837 27.7172 11.9729 27.9863 11.9687H42.9863C43.7813 11.971 44.543 12.2879 45.1051 12.85C45.6672 13.4121 45.984 14.1738 45.9863 14.9687V19.8787Z" fill="#595BD4"/>
<path d="M31.6695 25.0203C30.3604 25.4385 29.1416 26.0992 28.0767 26.968C27.4297 26.1434 26.1073 24.1391 24.9762 25.3679C24.8171 25.5801 24.7487 25.8468 24.7861 26.1093C24.8234 26.3719 24.9634 26.6089 25.1754 26.7684C25.7804 27.2151 26.2834 27.7855 26.6511 28.4415C25.6509 29.7474 25.0703 31.3259 24.9859 32.9686C24.9905 33.2303 25.0974 33.4798 25.2839 33.6636C25.4703 33.8473 25.7213 33.9506 25.9831 33.9514C26.2448 33.9522 26.4965 33.8503 26.684 33.6676C26.8714 33.485 26.9799 33.2361 26.9859 32.9744C26.9879 32.7987 27.1012 28.6512 32.3023 26.9168C32.5502 26.8301 32.7541 26.6493 32.8698 26.4135C32.9854 26.1777 33.0037 25.9059 32.9206 25.6567C32.8374 25.4076 32.6596 25.2012 32.4255 25.0821C32.1914 24.963 31.9198 24.9408 31.6695 25.0203ZM52.2349 6.96859C52.1693 6.85479 52.0819 6.75504 51.9777 6.67504C51.8735 6.59504 51.7546 6.53636 51.6277 6.50235C51.5008 6.46834 51.3685 6.45967 51.2383 6.47683C51.108 6.494 50.9825 6.53666 50.8687 6.60238L48.2701 8.10238C48.1563 8.168 48.0565 8.25541 47.9765 8.35961C47.8964 8.46381 47.8377 8.58275 47.8037 8.70965C47.7696 8.83655 47.7609 8.96891 47.778 9.09917C47.7951 9.22944 47.8378 9.35506 47.9034 9.46885C47.9691 9.58263 48.0566 9.68237 48.1608 9.76235C48.265 9.84233 48.384 9.90098 48.5109 9.93497C48.6379 9.96895 48.7702 9.9776 48.9005 9.96041C49.0307 9.94322 49.1563 9.90054 49.2701 9.8348L51.8687 8.3348C51.9825 8.26916 52.0822 8.18175 52.1622 8.07756C52.2422 7.97337 52.3009 7.85444 52.3349 7.72757C52.3689 7.60069 52.3776 7.46836 52.3604 7.33813C52.3433 7.20791 52.3006 7.08233 52.2349 6.96859ZM54.3248 14.9462C54.5776 14.8745 54.792 14.7063 54.9218 14.4778C55.0515 14.2493 55.0861 13.979 55.0181 13.7252C54.9501 13.4714 54.7849 13.2546 54.5583 13.1216C54.3317 12.9886 54.0619 12.9502 53.8071 13.0145L50.9097 13.7909C50.6571 13.8626 50.4428 14.0309 50.3131 14.2593C50.1835 14.4877 50.1489 14.758 50.2169 15.0117C50.2849 15.2654 50.45 15.4822 50.6764 15.6152C50.9029 15.7482 51.1726 15.7867 51.4273 15.7225L54.3248 14.9462ZM54.9859 19.9686H51.9859C51.7232 19.9723 51.4724 20.0793 51.2879 20.2665C51.1034 20.4536 51 20.7058 51 20.9686C51 21.2314 51.1035 21.4836 51.288 21.6708C51.4725 21.8579 51.7232 21.9649 51.986 21.9686H54.9859C55.2487 21.9649 55.4994 21.8579 55.6839 21.6707C55.8685 21.4836 55.9719 21.2314 55.9719 20.9686C55.9719 20.7058 55.8685 20.4536 55.6839 20.2664C55.4994 20.0793 55.2487 19.9723 54.9859 19.9686ZM7.70175 8.10238L5.10311 6.60238C4.87364 6.47433 4.60301 6.44173 4.3497 6.51161C4.09639 6.58148 3.88075 6.74823 3.7494 6.97582C3.61804 7.2034 3.58151 7.47353 3.64771 7.72783C3.71391 7.98212 3.87751 8.20016 4.10317 8.3348C4.44863 8.4788 6.84217 10.0642 7.20077 9.96865C7.4187 9.96438 7.62934 9.88943 7.801 9.75509C7.97265 9.62075 8.09601 9.43428 8.15253 9.22376C8.20904 9.01324 8.19564 8.79006 8.11434 8.58782C8.03304 8.38558 7.88824 8.21521 7.70175 8.10238ZM5.0621 13.7908L2.16464 13.0145C1.90848 12.9459 1.63555 12.9818 1.40589 13.1144C1.17622 13.247 1.00864 13.4654 0.940008 13.7215C0.871372 13.9777 0.907306 14.2506 1.0399 14.4803C1.1725 14.71 1.3909 14.8775 1.64706 14.9462C1.72628 14.9549 4.83529 15.8347 4.80429 15.7567C5.04429 15.7522 5.27471 15.6617 5.45365 15.5017C5.63258 15.3417 5.74817 15.1228 5.77938 14.8848C5.81059 14.6467 5.75536 14.4054 5.62374 14.2047C5.49211 14.004 5.29282 13.8571 5.0621 13.7908ZM3.98593 19.9686H0.985928C0.723161 19.9723 0.472418 20.0793 0.287919 20.2665C0.10342 20.4536 -7.88335e-06 20.7058 4.50674e-10 20.9686C7.88425e-06 21.2314 0.103451 21.4836 0.287961 21.6708C0.472471 21.8579 0.72322 21.9649 0.985988 21.9686H3.98593C4.24869 21.9649 4.49944 21.8579 4.68394 21.6707C4.86845 21.4836 4.97188 21.2314 4.97188 20.9686C4.97188 20.7058 4.86845 20.4536 4.68394 20.2664C4.49944 20.0793 4.24869 19.9723 3.98593 19.9686Z" fill="#595BD4"/>
</svg>
