<svg width="55" height="55" viewBox="0 0 55 55" fill="none" xmlns="http://www.w3.org/2000/svg">
<path d="M3.4375 11.1719C3.4375 11.3998 3.52804 11.6184 3.68921 11.7795C3.85037 11.9407 4.06895 12.0312 4.29688 12.0312H8.59375V50.7031C8.59375 51.6148 8.95591 52.4891 9.60057 53.1338C10.2452 53.7785 11.1196 54.1406 12.0312 54.1406H48.125C49.0367 54.1406 49.911 53.7785 50.5557 53.1338C51.2003 52.4891 51.5625 51.6148 51.5625 50.7031V47.2656C51.5625 47.0377 51.472 46.8191 51.3108 46.658C51.1496 46.4968 50.931 46.4062 50.7031 46.4062H48.125V4.29688C48.125 3.38519 47.7628 2.51085 47.1182 1.8662C46.4735 1.22154 45.5992 0.859375 44.6875 0.859375H6.875C5.96332 0.859375 5.08898 1.22154 4.44432 1.8662C3.79966 2.51085 3.4375 3.38519 3.4375 4.29688V11.1719ZM49.8438 50.7031C49.8438 51.159 49.6627 51.5961 49.3403 51.9185C49.018 52.2408 48.5808 52.4219 48.125 52.4219H15.0073C15.3104 51.8999 15.4697 51.3068 15.4688 50.7031V48.125H49.8438V50.7031ZM46.4062 4.29688V46.4062H14.6094C14.3815 46.4062 14.1629 46.4968 14.0017 46.658C13.8405 46.8191 13.75 47.0377 13.75 47.2656V50.7031C13.75 51.159 13.5689 51.5961 13.2466 51.9185C12.9243 52.2408 12.4871 52.4219 12.0312 52.4219C11.5754 52.4219 11.1382 52.2408 10.8159 51.9185C10.4936 51.5961 10.3125 51.159 10.3125 50.7031V4.29688C10.3089 3.69166 10.144 3.09834 9.83469 2.57812H44.6875C45.1433 2.57812 45.5805 2.75921 45.9028 3.08154C46.2252 3.40386 46.4062 3.84103 46.4062 4.29688ZM5.15625 4.29688C5.15625 3.84103 5.33733 3.40386 5.65966 3.08154C5.98199 2.75921 6.41916 2.57812 6.875 2.57812C7.33084 2.57812 7.76801 2.75921 8.09034 3.08154C8.41267 3.40386 8.59375 3.84103 8.59375 4.29688V10.3125H5.15625V4.29688Z" fill="#595BD4"/>
<path d="M12.8906 21.4844H19.7656C19.9935 21.4844 20.2121 21.3938 20.3733 21.2327C20.5345 21.0715 20.625 20.8529 20.625 20.625C20.6241 18.9767 21.1501 17.3712 22.1264 16.043C23.1026 14.7149 24.4778 13.7336 26.0513 13.2425C27.6248 12.7514 29.314 12.7761 30.8724 13.3132C32.4308 13.8502 33.7767 14.8714 34.7136 16.2276L30.0824 18.7198C29.6124 18.278 29.0005 18.0179 28.3562 17.9861C27.7119 17.9542 27.0774 18.1527 26.566 18.5459C26.0547 18.9392 25.7 19.5015 25.5654 20.1324C25.4308 20.7632 25.5251 21.4214 25.8313 21.9891C26.1376 22.5568 26.6359 22.997 27.2371 23.2309C27.8382 23.4648 28.503 23.4771 29.1124 23.2657C29.7218 23.0543 30.2361 22.6329 30.5633 22.077C30.8904 21.521 31.0091 20.8668 30.898 20.2314L35.53 17.7392C35.9016 18.656 36.093 19.6358 36.0938 20.625C36.0938 20.8529 36.1843 21.0715 36.3455 21.2327C36.5066 21.3938 36.7252 21.4844 36.9531 21.4844H43.8281C44.056 21.4844 44.2746 21.3938 44.4358 21.2327C44.597 21.0715 44.6875 20.8529 44.6875 20.625C44.6875 16.2945 42.9672 12.1414 39.9051 9.07927C36.843 6.01715 32.6899 4.29688 28.3594 4.29688C24.0289 4.29688 19.8758 6.01715 16.8136 9.07927C13.7515 12.1414 12.0313 16.2945 12.0312 20.625C12.0312 20.8529 12.1218 21.0715 12.283 21.2327C12.4441 21.3938 12.6627 21.4844 12.8906 21.4844ZM28.3594 21.4844C28.1894 21.4844 28.0233 21.434 27.8819 21.3395C27.7406 21.2451 27.6305 21.1109 27.5654 20.9539C27.5004 20.7968 27.4834 20.624 27.5165 20.4573C27.5497 20.2906 27.6315 20.1375 27.7517 20.0173C27.8719 19.8971 28.025 19.8153 28.1917 19.7821C28.3584 19.749 28.5312 19.766 28.6882 19.831C28.8453 19.8961 28.9795 20.0062 29.0739 20.1476C29.1684 20.2889 29.2188 20.455 29.2188 20.625C29.2188 20.8529 29.1282 21.0715 28.967 21.2327C28.8059 21.3938 28.5873 21.4844 28.3594 21.4844ZM22.3205 13.3702L18.6691 9.71953C21.1154 7.53779 24.2276 6.2473 27.5 6.05773V11.214C25.5943 11.3888 23.7873 12.141 22.3205 13.3702ZM29.2188 11.2131V6.05687C32.4913 6.24668 35.6035 7.53747 38.0497 9.71953L34.3982 13.3702C32.9315 12.1407 31.1246 11.3881 29.2188 11.2131ZM37.7738 19.7656C37.6825 18.7858 37.4375 17.8264 37.0477 16.9228L39.9386 15.3656L39.1239 13.8531L36.2313 15.4103C36.0404 15.1245 35.8345 14.8491 35.6142 14.5853L39.2734 10.9278C41.4584 13.3756 42.7519 16.4901 42.9438 19.7656H37.7738ZM17.4453 10.9278L21.1028 14.5853C19.8733 16.0524 19.1206 17.8596 18.9449 19.7656H13.7749C13.9665 16.49 15.26 13.3754 17.4453 10.9278ZM12.8906 38.6719H24.9219C25.1498 38.6719 25.3684 38.5813 25.5295 38.4202C25.6907 38.259 25.7812 38.0404 25.7812 37.8125V25.7812C25.7812 25.5533 25.6907 25.3347 25.5295 25.1736C25.3684 25.0124 25.1498 24.9219 24.9219 24.9219H12.8906C12.6627 24.9219 12.4441 25.0124 12.283 25.1736C12.1218 25.3347 12.0312 25.5533 12.0312 25.7812V37.8125C12.0312 38.0404 12.1218 38.259 12.283 38.4202C12.4441 38.5813 12.6627 38.6719 12.8906 38.6719ZM17.6172 31.3672C17.6172 31.1122 17.6928 30.863 17.8344 30.651C17.9761 30.439 18.1774 30.2738 18.4129 30.1763C18.6485 30.0787 18.9077 30.0532 19.1577 30.1029C19.4078 30.1526 19.6375 30.2754 19.8178 30.4557C19.998 30.636 20.1208 30.8656 20.1705 31.1157C20.2203 31.3658 20.1948 31.6249 20.0972 31.8605C19.9996 32.096 19.8344 32.2974 19.6224 32.439C19.4104 32.5806 19.1612 32.6562 18.9062 32.6562C18.5644 32.6562 18.2365 32.5204 17.9947 32.2787C17.753 32.0369 17.6172 31.7091 17.6172 31.3672ZM18.9062 34.375C19.59 34.375 20.2458 34.6466 20.7293 35.1301C21.2128 35.6136 21.4844 36.2694 21.4844 36.9531H16.3281C16.3281 36.2694 16.5997 35.6136 17.0832 35.1301C17.5667 34.6466 18.2225 34.375 18.9062 34.375ZM13.75 26.6406H24.0625V36.9531H23.2031C23.2014 36.2251 23.0144 35.5095 22.6595 34.8738C22.3047 34.2381 21.7938 33.7033 21.175 33.3197C21.6488 32.7793 21.9113 32.0859 21.9141 31.3672C21.9141 30.5695 21.5972 29.8044 21.0331 29.2403C20.469 28.6763 19.704 28.3594 18.9062 28.3594C18.1085 28.3594 17.3435 28.6763 16.7794 29.2403C16.2153 29.8044 15.8984 30.5695 15.8984 31.3672C15.9012 32.0859 16.1637 32.7793 16.6375 33.3197C16.0187 33.7033 15.5078 34.2381 15.153 34.8738C14.7981 35.5095 14.6111 36.2251 14.6094 36.9531H13.75V26.6406ZM43.8281 24.9219H28.3594C28.1315 24.9219 27.9129 25.0124 27.7517 25.1736C27.5905 25.3347 27.5 25.5533 27.5 25.7812V29.2188C27.5 29.4467 27.5905 29.6653 27.7517 29.8264C27.9129 29.9876 28.1315 30.0781 28.3594 30.0781H43.8281C44.056 30.0781 44.2746 29.9876 44.4358 29.8264C44.597 29.6653 44.6875 29.4467 44.6875 29.2188V25.7812C44.6875 25.5533 44.597 25.3347 44.4358 25.1736C44.2746 25.0124 44.056 24.9219 43.8281 24.9219ZM42.9688 28.3594H29.2188V26.6406H42.9688V28.3594Z" fill="#595BD4"/>
<path d="M44.6875 31.7969H30.9375V33.5156H44.6875V31.7969Z" fill="#595BD4"/>
<path d="M44.6875 35.2344H27.5V36.9531H44.6875V35.2344Z" fill="#595BD4"/>
<path d="M44.6875 38.6719H27.5V40.3906H44.6875V38.6719Z" fill="#595BD4"/>
<path d="M44.6875 42.1094H12.8906V43.8281H44.6875V42.1094Z" fill="#595BD4"/>
</svg>
