<svg width="55" height="55" viewBox="0 0 55 55" fill="none" xmlns="http://www.w3.org/2000/svg">
<path d="M20.0111 14.6624C21.3569 13.1064 22.1774 11.0847 22.1774 8.87097C22.1774 3.97952 18.1979 0 13.3065 0C8.415 0 4.43548 3.97952 4.43548 8.87097C4.43548 11.0847 5.25605 13.1064 6.60177 14.6624C2.91944 14.9183 0 17.9881 0 21.7339V37.7016C0 38.1913 0.397419 38.5887 0.887097 38.5887H4.87903V54.1129C4.87903 54.6026 5.27645 55 5.76613 55H13.3065H20.8468C21.3365 55 21.7339 54.6026 21.7339 54.1129V38.5887H25.7258C26.2155 38.5887 26.6129 38.1913 26.6129 37.7016V21.7339C26.6129 17.9881 23.6935 14.9183 20.0111 14.6624ZM6.20968 8.87097C6.20968 4.95798 9.39347 1.77419 13.3065 1.77419C17.2194 1.77419 20.4032 4.95798 20.4032 8.87097C20.4032 12.784 17.2194 15.9677 13.3065 15.9677C9.39347 15.9677 6.20968 12.784 6.20968 8.87097ZM24.8387 36.8145H21.7339V26.6129C21.7339 26.1232 21.3365 25.7258 20.8468 25.7258C20.3571 25.7258 19.9597 26.1232 19.9597 26.6129V53.2258H14.1935V37.7016V37.2581C14.1935 36.7684 13.7961 36.371 13.3065 36.371C12.8168 36.371 12.4194 36.7684 12.4194 37.2581V37.7016V53.2258H6.65323V26.6129C6.65323 26.1232 6.25581 25.7258 5.76613 25.7258C5.27645 25.7258 4.87903 26.1232 4.87903 26.6129V36.8145H1.77419V21.7339C1.77419 18.7989 4.16181 16.4113 7.09677 16.4113H8.65673C10.0109 17.2496 11.6006 17.7419 13.3065 17.7419C15.0123 17.7419 16.602 17.2496 17.9562 16.4113H19.5161C22.4511 16.4113 24.8387 18.7989 24.8387 21.7339V36.8145ZM30.1613 17.2984H51.0081C51.3363 17.2984 51.6335 17.121 51.7887 16.8327L54.8935 11.0665C55.0355 10.8048 55.0355 10.4855 54.8935 10.2238L51.7887 4.45766C51.6335 4.16935 51.3363 3.99194 51.0081 3.99194H30.1613C29.6734 3.99194 29.2742 4.39113 29.2742 4.87903V16.4113C29.2742 16.8992 29.6734 17.2984 30.1613 17.2984ZM35.4839 7.98387H46.129C46.6187 7.98387 47.0161 8.38129 47.0161 8.87097C47.0161 9.36065 46.6187 9.75806 46.129 9.75806H35.4839C34.9942 9.75806 34.5968 9.36065 34.5968 8.87097C34.5968 8.38129 34.9942 7.98387 35.4839 7.98387ZM35.4839 11.5323H41.6935C42.1832 11.5323 42.5806 11.9297 42.5806 12.4194C42.5806 12.909 42.1832 13.3065 41.6935 13.3065H35.4839C34.9942 13.3065 34.5968 12.909 34.5968 12.4194C34.5968 11.9297 34.9942 11.5323 35.4839 11.5323ZM51.7887 21.3125C51.6335 21.0242 51.3363 20.8468 51.0081 20.8468H30.1613C29.6734 20.8468 29.2742 21.246 29.2742 21.7339V33.2661C29.2742 33.754 29.6734 34.1532 30.1613 34.1532H51.0081C51.3363 34.1532 51.6335 33.9758 51.7887 33.6875L54.8935 27.9214C55.0355 27.6597 55.0355 27.3403 54.8935 27.0786L51.7887 21.3125ZM41.6935 30.1613H35.4839C34.9942 30.1613 34.5968 29.7639 34.5968 29.2742C34.5968 28.7845 34.9942 28.3871 35.4839 28.3871H41.6935C42.1832 28.3871 42.5806 28.7845 42.5806 29.2742C42.5806 29.7639 42.1832 30.1613 41.6935 30.1613ZM46.129 26.6129H35.4839C34.9942 26.6129 34.5968 26.2155 34.5968 25.7258C34.5968 25.2361 34.9942 24.8387 35.4839 24.8387H46.129C46.6187 24.8387 47.0161 25.2361 47.0161 25.7258C47.0161 26.2155 46.6187 26.6129 46.129 26.6129ZM51.7887 38.1673C51.6335 37.879 51.3363 37.7016 51.0081 37.7016H30.1613C29.6734 37.7016 29.2742 38.1008 29.2742 38.5887V50.121C29.2742 50.6089 29.6734 51.0081 30.1613 51.0081H51.0081C51.3363 51.0081 51.6335 50.8306 51.7887 50.5423L54.8935 44.7762C55.0355 44.5145 55.0355 44.1952 54.8935 43.9335L51.7887 38.1673ZM41.6935 47.0161H35.4839C34.9942 47.0161 34.5968 46.6187 34.5968 46.129C34.5968 45.6394 34.9942 45.2419 35.4839 45.2419H41.6935C42.1832 45.2419 42.5806 45.6394 42.5806 46.129C42.5806 46.6187 42.1832 47.0161 41.6935 47.0161ZM46.129 43.4677H35.4839C34.9942 43.4677 34.5968 43.0703 34.5968 42.5806C34.5968 42.091 34.9942 41.6935 35.4839 41.6935H46.129C46.6187 41.6935 47.0161 42.091 47.0161 42.5806C47.0161 43.0703 46.6187 43.4677 46.129 43.4677Z" fill="#595BD4"/>
</svg>
