<svg width="55" height="55" viewBox="0 0 55 55" fill="none" xmlns="http://www.w3.org/2000/svg">
<path fill-rule="evenodd" clip-rule="evenodd" d="M11.4965 6.875C11.18 6.875 10.8764 6.98056 10.6525 7.16846C10.4287 7.35637 10.303 7.61122 10.303 7.87695L10.2743 11.8847C10.2743 12.4378 10.8377 12.8867 11.4965 12.8867H42.5295C42.8461 12.8867 43.1497 12.7811 43.3735 12.5932C43.5973 12.4053 43.7231 12.1505 43.7231 11.8847V6.90706L42.5295 6.875H11.4965ZM12.6615 8.8789H35.3394V10.8828H12.6615V8.8789ZM37.7266 8.8789H41.3073V10.8828H37.7266V8.8789ZM26.9844 14.8786C21.0929 14.8786 16.2971 18.9325 16.2971 23.8961C16.2971 26.7497 17.9084 29.2666 20.372 30.9218H19.725C11.8618 30.9218 5.5 36.2882 5.5 42.9111V53.9746C5.5 54.2404 5.62575 54.4952 5.84959 54.6831C6.07343 54.871 6.37702 54.9766 6.69358 54.9766H13.4588C13.6278 55.0078 13.8029 55.0078 13.972 54.9766H39.875C40.0279 55.0019 40.1852 55.0019 40.3381 54.9766H47.2752C47.5917 54.9766 47.8953 54.871 48.1192 54.6831C48.343 54.4952 48.4688 54.2404 48.4688 53.9746V42.9111C48.4688 36.2882 42.107 30.9218 34.2437 30.9218H33.5968C36.0603 29.2666 37.6717 26.7497 37.6717 23.8961C37.6717 18.9325 32.8759 14.8786 26.9844 14.8786ZM26.9844 16.8825C28.0787 16.8832 29.1621 17.0655 30.1723 17.4188C31.1825 17.7721 32.0996 18.2895 32.8708 18.9413C33.6421 19.593 34.2524 20.3662 34.6666 21.2165C35.0808 22.0668 35.2908 22.9775 35.2845 23.8961C35.2908 24.8148 35.0808 25.7254 34.6666 26.5757C34.2524 27.426 33.6421 28.1992 32.8708 28.851C32.0996 29.5027 31.1825 30.0201 30.1723 30.3734C29.1621 30.7267 28.0787 30.909 26.9844 30.9098C25.89 30.909 24.8066 30.7267 23.7964 30.3734C22.7863 30.0201 21.8692 29.5027 21.0979 28.851C20.3267 28.1992 19.7164 27.426 19.3022 26.5757C18.888 25.7254 18.678 24.8148 18.6842 23.8961C18.678 22.9775 18.888 22.0668 19.3022 21.2165C19.7164 20.3662 20.3267 19.593 21.0979 18.9413C21.8692 18.2895 22.7863 17.7721 23.7964 17.4188C24.8066 17.0655 25.89 16.8832 26.9844 16.8825ZM19.725 32.9257H23.7832L22.9095 43.6105C22.8968 43.7589 22.9236 43.9079 22.988 44.0465C23.0524 44.1852 23.1528 44.31 23.2819 44.412L26.1704 46.6824C26.3915 46.856 26.6829 46.9525 26.9856 46.9525C27.2883 46.9525 27.5797 46.856 27.8008 46.6824L30.6869 44.414C30.8159 44.312 30.9163 44.1872 30.9808 44.0485C31.0452 43.9099 31.072 43.7609 31.0592 43.6125L30.1879 32.9257H34.2437C35.8039 32.9233 37.3493 33.1803 38.7905 33.6818C40.2318 34.1834 41.5405 34.9196 42.6411 35.8479C43.7416 36.7763 44.6123 37.8784 45.2028 39.0907C45.7933 40.303 46.092 41.6014 46.0816 42.9111V52.9727H41.3073V47.9349C41.3073 47.6691 41.1815 47.4143 40.9577 47.2264C40.7339 47.0385 40.4303 46.9329 40.1137 46.9329C39.7972 46.9329 39.4936 47.0385 39.2697 47.2264C39.0459 47.4143 38.9201 47.6691 38.9201 47.9349V52.9727H14.9078V47.9429C14.9078 47.6772 14.782 47.4223 14.5582 47.2344C14.3343 47.0465 14.0307 46.9409 13.7142 46.9409C13.3976 46.9409 13.094 47.0465 12.8702 47.2344C12.6464 47.4223 12.5206 47.6772 12.5206 47.9429V52.9727H7.88715V42.9111C7.87675 41.6014 8.17542 40.303 8.76594 39.0907C9.35645 37.8784 10.2271 36.7763 11.3277 35.8479C12.4283 34.9196 13.7369 34.1834 15.1782 33.6818C16.6195 33.1803 18.1648 32.9233 19.725 32.9257ZM26.1775 32.9257H27.796L28.6387 43.2738L26.9844 44.5763L25.3301 43.2738L26.1775 32.9257Z" fill="url(#paint0_linear_140_562)"/>
<defs>
<linearGradient id="paint0_linear_140_562" x1="5.5" y1="30.9378" x2="43.6944" y2="30.9378" gradientUnits="userSpaceOnUse">
<stop stop-color="#595BD4"/>
<stop offset="1" stop-color="#FE9526"/>
</linearGradient>
</defs>
</svg>
